HIERARCHY
ROOT Pelvis
{
	OFFSET 0.000000 0.000000 0.000000
	CHANNELS 6 Xposition Yposition Zposition Zrotation Yrotation Xrotation 
	JOINT Left_hip
	{
		OFFSET 0.068973 -0.091024 -0.007589
		CHANNELS 3 Zrotation Yrotation Xrotation
		JOINT Left_knee
		{
			OFFSET 0.036482 -0.391037 -0.003979
			CHANNELS 3 Zrotation Yrotation Xrotation
			JOINT Left_ankle
			{
				OFFSET -0.012239 -0.415469 -0.043440
				CHANNELS 3 Zrotation Yrotation Xrotation
				JOINT Left_foot
				{
					OFFSET 0.023806 -0.058558 0.118702
					CHANNELS 3 Zrotation Yrotation Xrotation
					End Site
					{
						OFFSET 0.000000 0.000000 0.000000
					}
				}
			}
		}
	}
	JOINT Right_hip
	{
		OFFSET -0.066552 -0.090468 -0.003847
		CHANNELS 3 Zrotation Yrotation Xrotation
		JOINT Right_knee
		{
			OFFSET -0.042435 -0.398340 -0.006400
			CHANNELS 3 Zrotation Yrotation Xrotation
			JOINT Right_ankle
			{
				OFFSET 0.014931 -0.415421 -0.041327
				CHANNELS 3 Zrotation Yrotation Xrotation
				JOINT Right_foot
				{
					OFFSET -0.021472 -0.049410 0.121889
					CHANNELS 3 Zrotation Yrotation Xrotation
					End Site
					{
						OFFSET 0.000000 0.000000 0.000000
					}
				}
			}
		}
	}
	JOINT Spine1
	{
		OFFSET -0.002904 0.105700 -0.022855
		CHANNELS 3 Zrotation Yrotation Xrotation
		JOINT Spine2
		{
			OFFSET 0.004179 0.132554 -0.002501
			CHANNELS 3 Zrotation Yrotation Xrotation
			JOINT Spine3
			{
				OFFSET 0.001987 0.049603 0.025988
				CHANNELS 3 Zrotation Yrotation Xrotation
				JOINT Neck
				{
					OFFSET -0.003935 0.211336 -0.045638
					CHANNELS 3 Zrotation Yrotation Xrotation
					JOINT Head
					{
						OFFSET 0.003906 0.065991 0.051018
						CHANNELS 3 Zrotation Yrotation Xrotation
						End Site
						{
							OFFSET 0.000000 0.000000 0.000000
						}
					}
				}
				JOINT Left_collar
				{
					OFFSET 0.072882 0.117751 -0.036270
					CHANNELS 3 Zrotation Yrotation Xrotation
					JOINT Left_shoulder
					{
						OFFSET 0.082118 0.032630 -0.005771
						CHANNELS 3 Zrotation Yrotation Xrotation
						JOINT Left_elbow
						{
							OFFSET 0.263305 -0.015144 -0.028095
							CHANNELS 3 Zrotation Yrotation Xrotation
							JOINT Left_wrist
							{
								OFFSET 0.250741 0.010115 -0.000759
								CHANNELS 3 Zrotation Yrotation Xrotation
								JOINT Left_palm
								{
									OFFSET 0.080683 -0.009989 -0.013613
									CHANNELS 3 Zrotation Yrotation Xrotation
									End Site
									{
										OFFSET 0.000000 0.000000 0.000000
									}
								}
							}
						}
					}
				}
				JOINT Right_collar
				{
					OFFSET -0.074811 0.116132 -0.040385
					CHANNELS 3 Zrotation Yrotation Xrotation
					JOINT Right_shoulder
					{
						OFFSET -0.085089 0.032943 -0.007484
						CHANNELS 3 Zrotation Yrotation Xrotation
						JOINT Right_elbow
						{
							OFFSET -0.254763 -0.014219 -0.020321
							CHANNELS 3 Zrotation Yrotation Xrotation
							JOINT Right_wrist
							{
								OFFSET -0.256597 0.009233 -0.005063
								CHANNELS 3 Zrotation Yrotation Xrotation
								JOINT Right_palm
								{
									OFFSET -0.080528 -0.007219 -0.010379
									CHANNELS 3 Zrotation Yrotation Xrotation
									End Site
									{
										OFFSET 0.000000 0.000000 0.000000
									}
								}
							}
						}
					}
				}
			}
		}
	}
}
MOTION
Frames: 5
Frame Time: 0.100000
0.141429 -0.077379 0.415446 176.645972 24.905467 -27.033135 11.015952 9.167250 3.070820 -4.400188 -1.794041 16.233230 -10.198356 15.981043 1.380437 8.720967 4.209333 -2.492430 -1.924397 -8.899570 19.472586 1.920623 7.707674 -0.913631 7.999358 -14.255246 -2.161192 -8.036591 7.426733 -1.932032 1.750858 3.170802 10.706939 1.533231 -6.001003 8.451518 3.629771 0.233966 1.741295 -3.150687 17.002195 2.348266 -0.829064 14.993902 -13.658490 -0.561282 -16.789306 -5.042559 -1.284187 -4.932735 -9.522218 8.268162 -32.464780 3.226969 18.191265 -11.245928 26.521725 -9.062540 -4.006072 -18.878268 4.996784 16.095991 -0.383357 18.021313 6.020472 -5.251696 0.742155 12.636236 -2.658907 -12.699567 3.018151 7.044736 12.110605 5.570359 -10.468297 
0.141492 -0.078797 0.420723 177.182246 23.314197 -26.611023 10.372761 10.081977 7.437539 -2.971118 -4.310536 6.919179 -11.257606 18.033995 0.048786 10.818084 2.229249 -0.441421 -1.776126 -8.480626 19.359062 1.919560 9.796793 -1.099028 9.744926 -16.195926 -2.745438 -10.426281 9.367741 -1.750151 2.962461 2.299568 8.674310 1.877426 -6.963479 7.517837 3.865357 0.246272 2.163406 -2.167631 18.033478 4.717573 -1.554113 16.112600 -13.960147 4.799711 -19.097432 -7.627362 4.580810 -2.111213 -11.777883 2.619152 -17.627406 2.416939 17.710338 -11.783067 30.930351 -9.259285 -3.998452 -22.419176 -2.050504 18.042497 -4.070707 8.352850 8.951479 -11.013200 1.910327 9.295041 -5.112502 -14.308127 3.651929 8.478759 11.899856 5.067037 -11.405188 
0.137699 -0.081316 0.426533 177.413170 23.072596 -26.301646 9.962297 11.367259 10.534335 -2.108997 -5.333444 1.472241 -11.885678 18.607408 0.375929 11.186615 1.775255 -0.255989 -1.807997 -8.501002 19.050624 1.685031 10.646532 -0.495059 10.491677 -17.434586 -3.087279 -11.576973 10.292197 -2.161753 4.084449 1.248279 7.041237 1.279933 -7.288432 6.394371 3.759568 0.274181 2.486623 -0.744236 17.080170 7.468789 -1.051930 17.853266 -14.364573 9.595773 -20.011055 -10.485377 7.233343 -1.801476 -14.652331 2.819651 -11.965038 -0.753497 20.940850 -12.852133 31.802413 -8.490314 -3.394107 -22.803905 -9.891343 19.196899 -8.063254 1.145173 11.685229 -16.761354 1.837219 7.971582 -6.686694 -17.303822 4.199097 10.417297 10.592479 4.329480 -10.809104 
0.132458 -0.084046 0.428744 178.121268 23.065415 -26.089884 11.416615 12.114031 8.726916 -3.852548 -2.429476 6.555981 -12.671050 19.796742 1.093917 11.970553 2.043389 -1.805795 -3.227072 -9.030714 19.521862 1.816564 12.045694 -0.635349 11.230001 -17.909615 -2.951309 -13.529791 10.220782 -3.357800 4.736050 1.386925 5.664981 0.275873 -7.129889 6.148000 3.330256 0.806386 3.172365 0.796106 13.740270 11.568335 1.337777 18.789639 -13.757524 14.631266 -20.198290 -12.807921 8.707709 -2.720155 -16.089782 4.575426 -14.243439 -1.426715 23.460705 -13.135507 29.864791 -7.877628 -2.593021 -21.884945 -18.407164 19.959105 -11.294573 -6.302191 13.024822 -23.373054 1.791143 6.656113 -7.204397 -18.914905 4.026430 13.487945 9.159938 3.659104 -10.614690 
0.124184 -0.086260 0.430915 178.463668 23.664881 -26.639574 12.981311 11.749198 7.815512 -3.613166 -4.266597 11.434305 -13.579593 19.571470 1.423431 13.288050 3.259723 -3.356968 -4.213109 -9.280299 20.202239 1.532271 13.031763 0.350297 11.339219 -18.641422 -3.041254 -13.977186 9.183942 -4.170229 4.525337 1.533646 5.283299 -0.329989 -7.129964 5.822001 3.278013 0.899438 3.611296 3.599451 10.907872 15.703681 3.679318 19.110811 -11.695827 19.060192 -19.809020 -14.509096 9.277648 -3.927789 -17.213007 8.236117 -19.516502 -1.644501 27.276131 -14.004894 28.258507 -7.729620 -1.991329 -21.914159 -26.263471 20.068413 -15.233926 -11.617375 15.158792 -29.718358 -1.981060 10.387998 -11.244539 -22.981568 4.055172 12.338210 8.680437 3.165231 -10.584902 
